{
	"asset":{
		"version":"2.0",
		"generator":"Houdini GLTF 2.0 Exporter"
	},
	"accessors":[
		{
			"bufferView":0,
			"componentType":5125,
			"count":152040,
			"type":"SCALAR",
			"min":[0
			],
			"max":[27245
			]
		},
		{
			"bufferView":1,
			"componentType":5126,
			"count":27246,
			"type":"VEC3",
			"min":[-7.53570461,1.05776882,-3.83058429
			],
			"max":[4.22475386,18.3615379,3.85430837
			]
		},
		{
			"bufferView":2,
			"componentType":5126,
			"count":27246,
			"type":"SCALAR",
			"min":[-0.902132034
			],
			"max":[1.3611182
			]
		},
		{
			"bufferView":3,
			"componentType":5126,
			"count":27246,
			"type":"SCALAR",
			"min":[1
			],
			"max":[1
			]
		},
		{
			"bufferView":4,
			"componentType":5126,
			"count":27246,
			"type":"VEC3",
			"min":[-0.99994272,-0.999982715,-0.999996543
			],
			"max":[0.999405682,0.999987781,0.999989808
			]
		},
		{
			"bufferView":5,
			"componentType":5126,
			"count":27246,
			"type":"VEC2",
			"min":[0.001953125,0.0107421875
			],
			"max":[0.997070312,0.997721195
			]
		},
		{
			"bufferView":6,
			"componentType":5125,
			"count":27246,
			"type":"SCALAR",
			"min":[-24454
			],
			"max":[28395
			]
		},
		{
			"bufferView":7,
			"componentType":5126,
			"count":27246,
			"type":"VEC3",
			"min":[1,1,1
			],
			"max":[1,1,1
			]
		},
		{
			"bufferView":8,
			"componentType":5125,
			"count":27246,
			"type":"SCALAR",
			"min":[-24454
			],
			"max":[28395
			]
		},
		{
			"bufferView":9,
			"componentType":5125,
			"count":27246,
			"type":"SCALAR",
			"min":[0
			],
			"max":[0
			]
		},
		{
			"bufferView":10,
			"componentType":5126,
			"count":27246,
			"type":"SCALAR",
			"min":[0.660949945
			],
			"max":[0.660949945
			]
		}
	],
	"buffers":[
		{
			"uri":"Alex_Critter_data.bin",
			"byteLength":2460888,
			"name":"main_buffer"
		}
	],
	"bufferViews":[
		{
			"buffer":0,
			"byteLength":608160,
			"target":34963
		},
		{
			"buffer":0,
			"byteOffset":608160,
			"byteLength":326952,
			"target":34962
		},
		{
			"buffer":0,
			"byteOffset":935112,
			"byteLength":108984,
			"target":34962
		},
		{
			"buffer":0,
			"byteOffset":1044096,
			"byteLength":108984,
			"target":34962
		},
		{
			"buffer":0,
			"byteOffset":1153080,
			"byteLength":326952,
			"target":34962
		},
		{
			"buffer":0,
			"byteOffset":1480032,
			"byteLength":217968,
			"target":34962
		},
		{
			"buffer":0,
			"byteOffset":1698000,
			"byteLength":108984,
			"target":34962
		},
		{
			"buffer":0,
			"byteOffset":1806984,
			"byteLength":326952,
			"target":34962
		},
		{
			"buffer":0,
			"byteOffset":2133936,
			"byteLength":108984,
			"target":34962
		},
		{
			"buffer":0,
			"byteOffset":2242920,
			"byteLength":108984,
			"target":34962
		},
		{
			"buffer":0,
			"byteOffset":2351904,
			"byteLength":108984,
			"target":34962
		}
	],
	"nodes":[
		{
			"name":"Photogrammetry_HP_LP",
			"mesh":0
		}
	],
	"meshes":[
		{
			"primitives":[
				{
					"attributes":{
						"_coverage":10,
						"_polygroup":8,
						"TEXCOORD_0":5,
						"_numnonpacked":9,
						"NORMAL":4,
						"COLOR_0":7,
						"_mask":3,
						"_curvature":2,
						"_vertexPolygroup":6,
						"POSITION":1
					},
					"indices":0
				}
			],
			"name":"visTextures"
		}
	],
	"scenes":[
		{
			"nodes":[0
			]
		}
	],
	"scene":0
}
